<?xml version="1.0" encoding="UTF-8" standalone="no"?>
<!DOCTYPE svg PUBLIC "-//W3C//DTD SVG 1.1//EN"
 "http://www.w3.org/Graphics/SVG/1.1/DTD/svg11.dtd">
<!-- Generated by graphviz version 2.38.0 (20140413.2041)
 -->
<!-- Title: controllers_diagram Pages: 1 -->
<svg width="725pt" height="631pt"
 viewBox="0.00 0.00 725.00 630.50" xmlns="http://www.w3.org/2000/svg" xmlns:xlink="http://www.w3.org/1999/xlink">
<g id="graph0" class="graph" transform="scale(1 1) rotate(0) translate(276.5 388.5)">
<title>controllers_diagram</title>
<polygon fill="none" stroke="none" points="-276.5,242 -276.5,-388.5 448.5,-388.5 448.5,242 -276.5,242"/>
<!-- _diagram_info -->
<g id="node1" class="node"><title>_diagram_info</title>
<text text-anchor="start" x="110" y="157.4" font-family="Times,serif" font-size="13.00">Controllers diagram</text>
<text text-anchor="start" x="110" y="171.4" font-family="Times,serif" font-size="13.00">Date: Feb 27 2017 &#45; 14:17</text>
<text text-anchor="start" x="110" y="185.4" font-family="Times,serif" font-size="13.00">Migration version: 20170227161937</text>
<text text-anchor="start" x="110" y="199.4" font-family="Times,serif" font-size="13.00">Generated by RailRoady 1.5.2</text>
<text text-anchor="start" x="110" y="213.4" font-family="Times,serif" font-size="13.00">http://railroady.prestonlee.com</text>
</g>
<!-- CaughtsController -->
<g id="node2" class="node"><title>CaughtsController</title>
<path fill="none" stroke="black" d="M114,101.5C114,101.5 206,101.5 206,101.5 212,101.5 218,95.5 218,89.5 218,89.5 218,-99.5 218,-99.5 218,-105.5 212,-111.5 206,-111.5 206,-111.5 114,-111.5 114,-111.5 108,-111.5 102,-105.5 102,-99.5 102,-99.5 102,89.5 102,89.5 102,95.5 108,101.5 114,101.5"/>
<text text-anchor="middle" x="160" y="-96.3" font-family="Times,serif" font-size="14.00">CaughtsController</text>
<polyline fill="none" stroke="black" points="102,-88.5 218,-88.5 "/>
<text text-anchor="start" x="110" y="-73.3" font-family="Times,serif" font-size="14.00">create</text>
<text text-anchor="start" x="110" y="-58.3" font-family="Times,serif" font-size="14.00">destroy</text>
<text text-anchor="start" x="110" y="-43.3" font-family="Times,serif" font-size="14.00">edit</text>
<text text-anchor="start" x="110" y="-28.3" font-family="Times,serif" font-size="14.00">index</text>
<text text-anchor="start" x="110" y="-13.3" font-family="Times,serif" font-size="14.00">new</text>
<text text-anchor="start" x="110" y="1.7" font-family="Times,serif" font-size="14.00">show</text>
<text text-anchor="start" x="110" y="16.7" font-family="Times,serif" font-size="14.00">update</text>
<polyline fill="none" stroke="black" points="102,24.5 218,24.5 "/>
<polyline fill="none" stroke="black" points="102,48.5 218,48.5 "/>
<text text-anchor="start" x="110" y="63.7" font-family="Times,serif" font-size="14.00">_layout</text>
<text text-anchor="start" x="110" y="78.7" font-family="Times,serif" font-size="14.00">caught_params</text>
<text text-anchor="start" x="110" y="93.7" font-family="Times,serif" font-size="14.00">set_caught</text>
</g>
<!-- Users::OmniauthCallbacksController -->
<g id="node3" class="node"><title>Users::OmniauthCallbacksController</title>
<path fill="none" stroke="black" d="M165,-154C165,-154 359,-154 359,-154 365,-154 371,-160 371,-166 371,-166 371,-236 371,-236 371,-242 365,-248 359,-248 359,-248 165,-248 165,-248 159,-248 153,-242 153,-236 153,-236 153,-166 153,-166 153,-160 159,-154 165,-154"/>
<text text-anchor="middle" x="262" y="-232.8" font-family="Times,serif" font-size="14.00">Users::OmniauthCallbacksController</text>
<polyline fill="none" stroke="black" points="153,-225 371,-225 "/>
<polyline fill="none" stroke="black" points="153,-201 371,-201 "/>
<polyline fill="none" stroke="black" points="153,-177 371,-177 "/>
<text text-anchor="start" x="161" y="-161.8" font-family="Times,serif" font-size="14.00">_layout</text>
</g>
<!-- Users::RegistrationsController -->
<g id="node4" class="node"><title>Users::RegistrationsController</title>
<path fill="none" stroke="black" d="M-226,237.5C-226,237.5 -68,237.5 -68,237.5 -62,237.5 -56,231.5 -56,225.5 -56,225.5 -56,156.5 -56,156.5 -56,150.5 -62,144.5 -68,144.5 -68,144.5 -226,144.5 -226,144.5 -232,144.5 -238,150.5 -238,156.5 -238,156.5 -238,225.5 -238,225.5 -238,231.5 -232,237.5 -226,237.5"/>
<text text-anchor="middle" x="-147" y="159.7" font-family="Times,serif" font-size="14.00">Users::RegistrationsController</text>
<polyline fill="none" stroke="black" points="-238,167.5 -56,167.5 "/>
<polyline fill="none" stroke="black" points="-238,191.5 -56,191.5 "/>
<text text-anchor="start" x="-230" y="206.7" font-family="Times,serif" font-size="14.00">configure_sign_up_params</text>
<polyline fill="none" stroke="black" points="-238,214.5 -56,214.5 "/>
<text text-anchor="start" x="-230" y="229.7" font-family="Times,serif" font-size="14.00">_layout</text>
</g>
<!-- Users::UnlocksController -->
<g id="node5" class="node"><title>Users::UnlocksController</title>
<path fill="none" stroke="black" d="M-208.5,-222C-208.5,-222 -77.5,-222 -77.5,-222 -71.5,-222 -65.5,-228 -65.5,-234 -65.5,-234 -65.5,-304 -65.5,-304 -65.5,-310 -71.5,-316 -77.5,-316 -77.5,-316 -208.5,-316 -208.5,-316 -214.5,-316 -220.5,-310 -220.5,-304 -220.5,-304 -220.5,-234 -220.5,-234 -220.5,-228 -214.5,-222 -208.5,-222"/>
<text text-anchor="middle" x="-143" y="-300.8" font-family="Times,serif" font-size="14.00">Users::UnlocksController</text>
<polyline fill="none" stroke="black" points="-220.5,-293 -65.5,-293 "/>
<polyline fill="none" stroke="black" points="-220.5,-269 -65.5,-269 "/>
<polyline fill="none" stroke="black" points="-220.5,-245 -65.5,-245 "/>
<text text-anchor="start" x="-212.5" y="-229.8" font-family="Times,serif" font-size="14.00">_layout</text>
</g>
<!-- Users::ConfirmationsController -->
<g id="node6" class="node"><title>Users::ConfirmationsController</title>
<path fill="none" stroke="black" d="M267.5,101C267.5,101 432.5,101 432.5,101 438.5,101 444.5,95 444.5,89 444.5,89 444.5,19 444.5,19 444.5,13 438.5,7 432.5,7 432.5,7 267.5,7 267.5,7 261.5,7 255.5,13 255.5,19 255.5,19 255.5,89 255.5,89 255.5,95 261.5,101 267.5,101"/>
<text text-anchor="middle" x="350" y="22.2" font-family="Times,serif" font-size="14.00">Users::ConfirmationsController</text>
<polyline fill="none" stroke="black" points="255.5,30 444.5,30 "/>
<polyline fill="none" stroke="black" points="255.5,54 444.5,54 "/>
<polyline fill="none" stroke="black" points="255.5,78 444.5,78 "/>
<text text-anchor="start" x="263.5" y="93.2" font-family="Times,serif" font-size="14.00">_layout</text>
</g>
<!-- Users::SessionsController -->
<g id="node7" class="node"><title>Users::SessionsController</title>
<path fill="none" stroke="black" d="M-242.5,-86C-242.5,-86 -109.5,-86 -109.5,-86 -103.5,-86 -97.5,-92 -97.5,-98 -97.5,-98 -97.5,-168 -97.5,-168 -97.5,-174 -103.5,-180 -109.5,-180 -109.5,-180 -242.5,-180 -242.5,-180 -248.5,-180 -254.5,-174 -254.5,-168 -254.5,-168 -254.5,-98 -254.5,-98 -254.5,-92 -248.5,-86 -242.5,-86"/>
<text text-anchor="middle" x="-176" y="-164.8" font-family="Times,serif" font-size="14.00">Users::SessionsController</text>
<polyline fill="none" stroke="black" points="-254.5,-157 -97.5,-157 "/>
<polyline fill="none" stroke="black" points="-254.5,-133 -97.5,-133 "/>
<polyline fill="none" stroke="black" points="-254.5,-109 -97.5,-109 "/>
<text text-anchor="start" x="-246.5" y="-93.8" font-family="Times,serif" font-size="14.00">_layout</text>
</g>
<!-- Users::PasswordsController -->
<g id="node8" class="node"><title>Users::PasswordsController</title>
<path fill="none" stroke="black" d="M-260.5,50C-260.5,50 -117.5,50 -117.5,50 -111.5,50 -105.5,44 -105.5,38 -105.5,38 -105.5,-32 -105.5,-32 -105.5,-38 -111.5,-44 -117.5,-44 -117.5,-44 -260.5,-44 -260.5,-44 -266.5,-44 -272.5,-38 -272.5,-32 -272.5,-32 -272.5,38 -272.5,38 -272.5,44 -266.5,50 -260.5,50"/>
<text text-anchor="middle" x="-189" y="-28.8" font-family="Times,serif" font-size="14.00">Users::PasswordsController</text>
<polyline fill="none" stroke="black" points="-272.5,-21 -105.5,-21 "/>
<polyline fill="none" stroke="black" points="-272.5,3 -105.5,3 "/>
<polyline fill="none" stroke="black" points="-272.5,27 -105.5,27 "/>
<text text-anchor="start" x="-264.5" y="42.2" font-family="Times,serif" font-size="14.00">_layout</text>
</g>
<!-- ApplicationController -->
<g id="node9" class="node"><title>ApplicationController</title>
<path fill="none" stroke="black" d="M301,-290C301,-290 413,-290 413,-290 419,-290 425,-296 425,-302 425,-302 425,-372 425,-372 425,-378 419,-384 413,-384 413,-384 301,-384 301,-384 295,-384 289,-378 289,-372 289,-372 289,-302 289,-302 289,-296 295,-290 301,-290"/>
<text text-anchor="middle" x="357" y="-368.8" font-family="Times,serif" font-size="14.00">ApplicationController</text>
<polyline fill="none" stroke="black" points="289,-361 425,-361 "/>
<polyline fill="none" stroke="black" points="289,-337 425,-337 "/>
<polyline fill="none" stroke="black" points="289,-313 425,-313 "/>
<text text-anchor="start" x="297" y="-297.8" font-family="Times,serif" font-size="14.00">_layout</text>
</g>
<!-- PokemonsController -->
<g id="node10" class="node"><title>PokemonsController</title>
<path fill="none" stroke="black" d="M-55.5,118.5C-55.5,118.5 49.5,118.5 49.5,118.5 55.5,118.5 61.5,112.5 61.5,106.5 61.5,106.5 61.5,-82.5 61.5,-82.5 61.5,-88.5 55.5,-94.5 49.5,-94.5 49.5,-94.5 -55.5,-94.5 -55.5,-94.5 -61.5,-94.5 -67.5,-88.5 -67.5,-82.5 -67.5,-82.5 -67.5,106.5 -67.5,106.5 -67.5,112.5 -61.5,118.5 -55.5,118.5"/>
<text text-anchor="middle" x="-3" y="-79.3" font-family="Times,serif" font-size="14.00">PokemonsController</text>
<polyline fill="none" stroke="black" points="-67.5,-71.5 61.5,-71.5 "/>
<text text-anchor="start" x="-59.5" y="-56.3" font-family="Times,serif" font-size="14.00">create</text>
<text text-anchor="start" x="-59.5" y="-41.3" font-family="Times,serif" font-size="14.00">destroy</text>
<text text-anchor="start" x="-59.5" y="-26.3" font-family="Times,serif" font-size="14.00">edit</text>
<text text-anchor="start" x="-59.5" y="-11.3" font-family="Times,serif" font-size="14.00">index</text>
<text text-anchor="start" x="-59.5" y="3.7" font-family="Times,serif" font-size="14.00">new</text>
<text text-anchor="start" x="-59.5" y="18.7" font-family="Times,serif" font-size="14.00">show</text>
<text text-anchor="start" x="-59.5" y="33.7" font-family="Times,serif" font-size="14.00">update</text>
<polyline fill="none" stroke="black" points="-67.5,41.5 61.5,41.5 "/>
<polyline fill="none" stroke="black" points="-67.5,65.5 61.5,65.5 "/>
<text text-anchor="start" x="-59.5" y="80.7" font-family="Times,serif" font-size="14.00">_layout</text>
<text text-anchor="start" x="-59.5" y="95.7" font-family="Times,serif" font-size="14.00">pokemon_params</text>
<text text-anchor="start" x="-59.5" y="110.7" font-family="Times,serif" font-size="14.00">set_pokemon</text>
</g>
<!-- UsersController -->
<g id="node11" class="node"><title>UsersController</title>
<path fill="none" stroke="black" d="M-21.5,-136.5C-21.5,-136.5 57.5,-136.5 57.5,-136.5 63.5,-136.5 69.5,-142.5 69.5,-148.5 69.5,-148.5 69.5,-337.5 69.5,-337.5 69.5,-343.5 63.5,-349.5 57.5,-349.5 57.5,-349.5 -21.5,-349.5 -21.5,-349.5 -27.5,-349.5 -33.5,-343.5 -33.5,-337.5 -33.5,-337.5 -33.5,-148.5 -33.5,-148.5 -33.5,-142.5 -27.5,-136.5 -21.5,-136.5"/>
<text text-anchor="middle" x="18" y="-334.3" font-family="Times,serif" font-size="14.00">UsersController</text>
<polyline fill="none" stroke="black" points="-33.5,-326.5 69.5,-326.5 "/>
<text text-anchor="start" x="-25.5" y="-311.3" font-family="Times,serif" font-size="14.00">create</text>
<text text-anchor="start" x="-25.5" y="-296.3" font-family="Times,serif" font-size="14.00">destroy</text>
<text text-anchor="start" x="-25.5" y="-281.3" font-family="Times,serif" font-size="14.00">edit</text>
<text text-anchor="start" x="-25.5" y="-266.3" font-family="Times,serif" font-size="14.00">index</text>
<text text-anchor="start" x="-25.5" y="-251.3" font-family="Times,serif" font-size="14.00">new</text>
<text text-anchor="start" x="-25.5" y="-236.3" font-family="Times,serif" font-size="14.00">show</text>
<text text-anchor="start" x="-25.5" y="-221.3" font-family="Times,serif" font-size="14.00">update</text>
<polyline fill="none" stroke="black" points="-33.5,-213.5 69.5,-213.5 "/>
<polyline fill="none" stroke="black" points="-33.5,-189.5 69.5,-189.5 "/>
<text text-anchor="start" x="-25.5" y="-174.3" font-family="Times,serif" font-size="14.00">_layout</text>
<text text-anchor="start" x="-25.5" y="-159.3" font-family="Times,serif" font-size="14.00">set_user</text>
<text text-anchor="start" x="-25.5" y="-144.3" font-family="Times,serif" font-size="14.00">user_params</text>
</g>
</g>
</svg>
