<?xml version="1.0" encoding="UTF-8" standalone="no"?>
<!DOCTYPE svg PUBLIC "-//W3C//DTD SVG 1.1//EN"
 "http://www.w3.org/Graphics/SVG/1.1/DTD/svg11.dtd">
<!-- Generated by graphviz version 2.38.0 (20140413.2041)
 -->
<!-- Title: models_diagram Pages: 1 -->
<svg width="656pt" height="566pt"
 viewBox="0.00 0.00 656.34 566.00" xmlns="http://www.w3.org/2000/svg" xmlns:xlink="http://www.w3.org/1999/xlink">
<g id="graph0" class="graph" transform="scale(1 1) rotate(0) translate(4 562)">
<title>models_diagram</title>
<polygon fill="none" stroke="none" points="-4,4 -4,-562 652.343,-562 652.343,4 -4,4"/>
<!-- _diagram_info -->
<g id="node1" class="node"><title>_diagram_info</title>
<text text-anchor="start" x="8" y="-529.1" font-family="Times,serif" font-size="13.00">Models diagram</text>
<text text-anchor="start" x="8" y="-515.1" font-family="Times,serif" font-size="13.00">Date: Feb 27 2017 &#45; 14:17</text>
<text text-anchor="start" x="8" y="-501.1" font-family="Times,serif" font-size="13.00">Migration version: 20170227161937</text>
<text text-anchor="start" x="8" y="-487.1" font-family="Times,serif" font-size="13.00">Generated by RailRoady 1.5.2</text>
<text text-anchor="start" x="8" y="-473.1" font-family="Times,serif" font-size="13.00">http://railroady.prestonlee.com</text>
</g>
<!-- Pokemon -->
<g id="node2" class="node"><title>Pokemon</title>
<path fill="none" stroke="black" d="M244,-451.5C244,-451.5 464,-451.5 464,-451.5 470,-451.5 476,-457.5 476,-463.5 476,-463.5 476,-545.5 476,-545.5 476,-551.5 470,-557.5 464,-557.5 464,-557.5 244,-557.5 244,-557.5 238,-557.5 232,-551.5 232,-545.5 232,-545.5 232,-463.5 232,-463.5 232,-457.5 238,-451.5 244,-451.5"/>
<text text-anchor="middle" x="354" y="-542.3" font-family="Times,serif" font-size="14.00">Pokemon</text>
<polyline fill="none" stroke="black" points="232,-534.5 476,-534.5 "/>
<text text-anchor="start" x="240" y="-519.3" font-family="Times,serif" font-size="14.00">id :integer</text>
<text text-anchor="start" x="240" y="-504.3" font-family="Times,serif" font-size="14.00">name :character varying</text>
<text text-anchor="start" x="240" y="-489.3" font-family="Times,serif" font-size="14.00">description :character varying</text>
<text text-anchor="start" x="240" y="-474.3" font-family="Times,serif" font-size="14.00">created_at :timestamp without time zone</text>
<text text-anchor="start" x="240" y="-459.3" font-family="Times,serif" font-size="14.00">updated_at :timestamp without time zone</text>
</g>
<!-- User -->
<g id="node4" class="node"><title>User</title>
<path fill="none" stroke="black" d="M116.5,-158.5C116.5,-158.5 405.5,-158.5 405.5,-158.5 411.5,-158.5 417.5,-164.5 417.5,-170.5 417.5,-170.5 417.5,-402.5 417.5,-402.5 417.5,-408.5 411.5,-414.5 405.5,-414.5 405.5,-414.5 116.5,-414.5 116.5,-414.5 110.5,-414.5 104.5,-408.5 104.5,-402.5 104.5,-402.5 104.5,-170.5 104.5,-170.5 104.5,-164.5 110.5,-158.5 116.5,-158.5"/>
<text text-anchor="middle" x="261" y="-399.3" font-family="Times,serif" font-size="14.00">User</text>
<polyline fill="none" stroke="black" points="104.5,-391.5 417.5,-391.5 "/>
<text text-anchor="start" x="112.5" y="-376.3" font-family="Times,serif" font-size="14.00">id :integer</text>
<text text-anchor="start" x="112.5" y="-361.3" font-family="Times,serif" font-size="14.00">email :character varying</text>
<text text-anchor="start" x="112.5" y="-346.3" font-family="Times,serif" font-size="14.00">encrypted_password :character varying</text>
<text text-anchor="start" x="112.5" y="-331.3" font-family="Times,serif" font-size="14.00">reset_password_token :character varying</text>
<text text-anchor="start" x="112.5" y="-316.3" font-family="Times,serif" font-size="14.00">reset_password_sent_at :timestamp without time zone</text>
<text text-anchor="start" x="112.5" y="-301.3" font-family="Times,serif" font-size="14.00">remember_created_at :timestamp without time zone</text>
<text text-anchor="start" x="112.5" y="-286.3" font-family="Times,serif" font-size="14.00">sign_in_count :integer</text>
<text text-anchor="start" x="112.5" y="-271.3" font-family="Times,serif" font-size="14.00">current_sign_in_at :timestamp without time zone</text>
<text text-anchor="start" x="112.5" y="-256.3" font-family="Times,serif" font-size="14.00">last_sign_in_at :timestamp without time zone</text>
<text text-anchor="start" x="112.5" y="-241.3" font-family="Times,serif" font-size="14.00">current_sign_in_ip :inet</text>
<text text-anchor="start" x="112.5" y="-226.3" font-family="Times,serif" font-size="14.00">last_sign_in_ip :inet</text>
<text text-anchor="start" x="112.5" y="-211.3" font-family="Times,serif" font-size="14.00">created_at :timestamp without time zone</text>
<text text-anchor="start" x="112.5" y="-196.3" font-family="Times,serif" font-size="14.00">updated_at :timestamp without time zone</text>
<text text-anchor="start" x="112.5" y="-181.3" font-family="Times,serif" font-size="14.00">role :integer</text>
<text text-anchor="start" x="112.5" y="-166.3" font-family="Times,serif" font-size="14.00">name :character varying</text>
</g>
<!-- Pokemon&#45;&gt;User -->
<g id="edge2" class="edge"><title>Pokemon&#45;&gt;User</title>
<path fill="none" stroke="#9b7584" d="M327.61,-442.208C325.08,-436.33 322.451,-430.224 319.763,-423.981"/>
<polygon fill="#9b7584" stroke="#9b7584" points="327.651,-442.303 327.473,-453.267 329.629,-446.895 331.606,-451.488 331.606,-451.488 331.606,-451.488 329.629,-446.895 335.739,-449.708 327.651,-442.303 327.651,-442.303"/>
<polygon fill="#9b7584" stroke="#9b7584" points="319.741,-423.931 319.92,-412.967 317.764,-419.339 315.787,-414.747 315.787,-414.747 315.787,-414.747 317.764,-419.339 311.654,-416.526 319.741,-423.931 319.741,-423.931"/>
</g>
<!-- Caught -->
<g id="node5" class="node"><title>Caught</title>
<path fill="none" stroke="black" d="M243,-0.5C243,-0.5 463,-0.5 463,-0.5 469,-0.5 475,-6.5 475,-12.5 475,-12.5 475,-109.5 475,-109.5 475,-115.5 469,-121.5 463,-121.5 463,-121.5 243,-121.5 243,-121.5 237,-121.5 231,-115.5 231,-109.5 231,-109.5 231,-12.5 231,-12.5 231,-6.5 237,-0.5 243,-0.5"/>
<text text-anchor="middle" x="353" y="-106.3" font-family="Times,serif" font-size="14.00">Caught</text>
<polyline fill="none" stroke="black" points="231,-98.5 475,-98.5 "/>
<text text-anchor="start" x="239" y="-83.3" font-family="Times,serif" font-size="14.00">id :integer</text>
<text text-anchor="start" x="239" y="-68.3" font-family="Times,serif" font-size="14.00">level :integer</text>
<text text-anchor="start" x="239" y="-53.3" font-family="Times,serif" font-size="14.00">pokemon_id :integer</text>
<text text-anchor="start" x="239" y="-38.3" font-family="Times,serif" font-size="14.00">user_id :integer</text>
<text text-anchor="start" x="239" y="-23.3" font-family="Times,serif" font-size="14.00">created_at :timestamp without time zone</text>
<text text-anchor="start" x="239" y="-8.3" font-family="Times,serif" font-size="14.00">updated_at :timestamp without time zone</text>
</g>
<!-- Pokemon&#45;&gt;Caught -->
<g id="edge1" class="edge"><title>Pokemon&#45;&gt;Caught</title>
<path fill="none" stroke="#5bbbb6" d="M411.587,-444.423C417.871,-435.172 423.316,-425.257 427,-415 465.614,-307.503 463.835,-266.12 427,-158 423.768,-148.513 419.178,-139.234 413.846,-130.413"/>
<ellipse fill="none" stroke="#5bbbb6" cx="409.197" cy="-447.78" rx="4.00002" ry="4.00002"/>
<polygon fill="#5bbbb6" stroke="#5bbbb6" points="413.69,-130.171 412.077,-119.324 410.99,-125.963 408.29,-121.754 408.29,-121.754 408.29,-121.754 410.99,-125.963 404.503,-124.185 413.69,-130.171 413.69,-130.171"/>
</g>
<!-- ApplicationRecord -->
<g id="node3" class="node"><title>ApplicationRecord</title>
<ellipse fill="none" stroke="black" cx="571" cy="-504.5" rx="77.1866" ry="18"/>
<text text-anchor="middle" x="571" y="-500.8" font-family="Times,serif" font-size="14.00">ApplicationRecord</text>
</g>
<!-- User&#45;&gt;Caught -->
<g id="edge3" class="edge"><title>User&#45;&gt;Caught</title>
<path fill="none" stroke="#569f10" d="M316.383,-150.956C319.197,-144.12 321.961,-137.404 324.633,-130.914"/>
<ellipse fill="none" stroke="#569f10" cx="314.839" cy="-154.707" rx="4.00002" ry="4.00002"/>
<polygon fill="#569f10" stroke="#569f10" points="324.668,-130.828 332.636,-123.294 326.571,-126.204 328.475,-121.581 328.475,-121.581 328.475,-121.581 326.571,-126.204 324.313,-119.868 324.668,-130.828 324.668,-130.828"/>
</g>
</g>
</svg>
