<?xml version="1.0" encoding="UTF-8" standalone="no"?>
<!DOCTYPE svg PUBLIC "-//W3C//DTD SVG 1.1//EN"
 "http://www.w3.org/Graphics/SVG/1.1/DTD/svg11.dtd">
<!-- Generated by graphviz version 2.38.0 (20140413.2041)
 -->
<!-- Title: models_diagram Pages: 1 -->
<svg width="501pt" height="230pt"
 viewBox="0.00 0.00 501.34 230.00" xmlns="http://www.w3.org/2000/svg" xmlns:xlink="http://www.w3.org/1999/xlink">
<g id="graph0" class="graph" transform="scale(1 1) rotate(0) translate(4 226)">
<title>models_diagram</title>
<polygon fill="none" stroke="none" points="-4,4 -4,-226 497.343,-226 497.343,4 -4,4"/>
<!-- _diagram_info -->
<g id="node1" class="node"><title>_diagram_info</title>
<text text-anchor="start" x="8" y="-207.6" font-family="Times,serif" font-size="13.00">Models diagram</text>
<text text-anchor="start" x="8" y="-193.6" font-family="Times,serif" font-size="13.00">Date: Feb 27 2017 &#45; 14:17</text>
<text text-anchor="start" x="8" y="-179.6" font-family="Times,serif" font-size="13.00">Migration version: 20170227161937</text>
<text text-anchor="start" x="8" y="-165.6" font-family="Times,serif" font-size="13.00">Generated by RailRoady 1.5.2</text>
<text text-anchor="start" x="8" y="-151.6" font-family="Times,serif" font-size="13.00">http://railroady.prestonlee.com</text>
</g>
<!-- Pokemon -->
<g id="node2" class="node"><title>Pokemon</title>
<ellipse fill="none" stroke="black" cx="276" cy="-183" rx="44.393" ry="18"/>
<text text-anchor="middle" x="276" y="-179.3" font-family="Times,serif" font-size="14.00">Pokemon</text>
</g>
<!-- User -->
<g id="node4" class="node"><title>User</title>
<ellipse fill="none" stroke="black" cx="248" cy="-90" rx="27.0966" ry="18"/>
<text text-anchor="middle" x="248" y="-86.3" font-family="Times,serif" font-size="14.00">User</text>
</g>
<!-- Pokemon&#45;&gt;User -->
<g id="edge2" class="edge"><title>Pokemon&#45;&gt;User</title>
<path fill="none" stroke="#355c20" d="M267.668,-154.922C264.022,-143.073 259.76,-129.218 256.136,-117.443"/>
<polygon fill="#355c20" stroke="#355c20" points="267.792,-155.326 266.432,-166.207 269.263,-160.105 270.733,-164.884 270.733,-164.884 270.733,-164.884 269.263,-160.105 275.034,-163.56 267.792,-155.326 267.792,-155.326"/>
<polygon fill="#355c20" stroke="#355c20" points="256.089,-117.29 257.449,-106.409 254.619,-112.511 253.148,-107.732 253.148,-107.732 253.148,-107.732 254.619,-112.511 248.847,-109.056 256.089,-117.29 256.089,-117.29"/>
</g>
<!-- Caught -->
<g id="node5" class="node"><title>Caught</title>
<ellipse fill="none" stroke="black" cx="275" cy="-18" rx="36.2938" ry="18"/>
<text text-anchor="middle" x="275" y="-14.3" font-family="Times,serif" font-size="14.00">Caught</text>
</g>
<!-- Pokemon&#45;&gt;Caught -->
<g id="edge1" class="edge"><title>Pokemon&#45;&gt;Caught</title>
<path fill="none" stroke="#10698c" d="M280.067,-156.873C283.144,-134.569 286.453,-101.1 284,-72 283.283,-63.4991 281.931,-54.3119 280.488,-46.0122"/>
<ellipse fill="none" stroke="#10698c" cx="279.486" cy="-160.884" rx="4.00001" ry="4.00001"/>
<polygon fill="#10698c" stroke="#10698c" points="280.473,-45.9257 283.079,-35.2741 279.563,-41.0091 278.654,-36.0925 278.654,-36.0925 278.654,-36.0925 279.563,-41.0091 274.229,-36.9109 280.473,-45.9257 280.473,-45.9257"/>
</g>
<!-- ApplicationRecord -->
<g id="node3" class="node"><title>ApplicationRecord</title>
<ellipse fill="none" stroke="black" cx="416" cy="-183" rx="77.1866" ry="18"/>
<text text-anchor="middle" x="416" y="-179.3" font-family="Times,serif" font-size="14.00">ApplicationRecord</text>
</g>
<!-- User&#45;&gt;Caught -->
<g id="edge3" class="edge"><title>User&#45;&gt;Caught</title>
<path fill="none" stroke="#0ab042" d="M257.343,-64.7779C259.747,-58.544 262.347,-51.8046 264.793,-45.4634"/>
<ellipse fill="none" stroke="#0ab042" cx="255.838" cy="-68.679" rx="4.00001" ry="4.00001"/>
<polygon fill="#0ab042" stroke="#0ab042" points="264.861,-45.2862 272.658,-37.5757 266.66,-40.6212 268.46,-35.9562 268.46,-35.9562 268.46,-35.9562 266.66,-40.6212 264.261,-34.3368 264.861,-45.2862 264.861,-45.2862"/>
</g>
</g>
</svg>
